
<svg version="1.1" xmlns="http://www.w3.org/2000/svg" width="32" height="32" viewBox="0 0 32 32">

<path fill="currentColor"  d="M15.667 2.533c5.199 0 9.434 4.129 9.604 9.286l0.005 0.324v6.652c0 5.136-4.164 9.3-9.3 9.3-0.442 0-0.8-0.358-0.8-0.8s0.358-0.8 0.8-0.8c4.154 0 7.539-3.289 7.694-7.405l0.006-0.295v-6.652c0-4.424-3.586-8.010-8.010-8.010-4.323 0-7.846 3.425-8.004 7.709l-0.006 0.3v6.299c0 0.442-0.358 0.8-0.8 0.8-0.398 0-0.728-0.29-0.79-0.67l-0.010-0.13v-6.299c0-5.307 4.302-9.61 9.61-9.61z"></path>
<path fill="currentColor"  d="M5.095 12.4c-1.415 0-2.562 1.147-2.562 2.562v3.524c0 1.415 1.147 2.562 2.562 2.562s2.562-1.147 2.562-2.562v-3.524c0-1.415-1.147-2.562-2.562-2.562zM5.095 14c0.531 0 0.962 0.431 0.962 0.962v3.524c0 0.531-0.431 0.962-0.962 0.962s-0.962-0.431-0.962-0.962v-3.524c0-0.531 0.431-0.962 0.962-0.962z"></path>
<path fill="currentColor"  d="M26.238 12.4c-1.415 0-2.562 1.147-2.562 2.562v3.524c0 1.415 1.147 2.562 2.562 2.562s2.562-1.147 2.562-2.562v-3.524c0-1.415-1.147-2.562-2.562-2.562zM26.238 14c0.531 0 0.962 0.431 0.962 0.962v3.524c0 0.531-0.431 0.962-0.962 0.962s-0.962-0.431-0.962-0.962v-3.524c0-0.531 0.431-0.962 0.962-0.962z"></path>
<path  fill="currentColor"  d="M16.724 25.956h-2.114c-0.74 0-1.339 0.599-1.339 1.339s0.6 1.339 1.339 1.339h2.114c0.74 0 1.339-0.599 1.339-1.339s-0.599-1.339-1.339-1.339z"></path>
</svg>
