<!-- Generated by IcoMoon.io -->
<svg version="1.1" xmlns="http://www.w3.org/2000/svg" width="32" height="32" viewBox="0 0 32 32">
<title>default-user</title>
<path fill="#515151" d="M16 2.031c-7.714 0-13.969 6.255-13.969 13.969s6.255 13.969 13.969 13.969c7.714 0 13.969-6.255 13.969-13.969s-6.255-13.969-13.969-13.969zM16 2.962c7.189 0 13.037 5.848 13.037 13.037 0 3.276-1.217 6.271-3.219 8.564-0.050-0.146-0.1-0.293-0.157-0.436-0.971-2.455-2.942-4.483-5.421-5.574-0.007-0.003-0.013-0.005-0.020-0.008 0.989-1.043 1.6-2.449 1.6-4 0-3.215-2.606-5.82-5.82-5.82s-5.82 2.605-5.82 5.82c0 1.551 0.611 2.958 1.601 4.001-0.012 0.005-0.023 0.009-0.036 0.015-2.464 1.083-4.434 3.112-5.406 5.566-0.057 0.144-0.107 0.29-0.157 0.436-2.002-2.293-3.219-5.288-3.219-8.564 0-7.189 5.848-13.037 13.038-13.037zM19.26 18.178c-0.291 0.261-0.611 0.492-0.958 0.678-0.687 0.368-1.47 0.578-2.302 0.578s-1.616-0.21-2.303-0.578c-0.347-0.186-0.666-0.416-0.957-0.678-0.997-0.896-1.629-2.19-1.629-3.633 0-2.696 2.193-4.889 4.889-4.889s4.889 2.193 4.889 4.889c0 1.443-0.632 2.737-1.629 3.633zM6.909 25.333c0.033-0.121 0.065-0.244 0.103-0.359 0.843-2.585 2.891-4.721 5.528-5.756 0.968 0.718 2.162 1.147 3.459 1.147s2.49-0.429 3.458-1.146c2.619 1.011 4.683 3.156 5.53 5.755 0.037 0.115 0.070 0.237 0.103 0.359-2.35 2.29-5.558 3.705-9.091 3.705s-6.74-1.415-9.091-3.705z"></path>
</svg>
